<?xml version="1.0" encoding="UTF-8"?>
<!DOCTYPE svg PUBLIC "-//W3C//DTD SVG 1.1//EN" "http://www.w3.org/Graphics/SVG/1.1/DTD/svg11.dtd">
<!-- Creator: CorelDRAW X7 -->
<svg xmlns="http://www.w3.org/2000/svg" xml:space="preserve" width="8.3863in" height="1.62696in" version="1.1" style="shape-rendering:geometricPrecision; text-rendering:geometricPrecision; image-rendering:optimizeQuality; fill-rule:evenodd; clip-rule:evenodd"
viewBox="0 0 9819 1905"
 xmlns:xlink="http://www.w3.org/1999/xlink">
 <defs>
  <style type="text/css">
   <![CDATA[
    .fil0 {fill:#ffffff;fill-rule:nonzero}
    .fil1 {fill:#ffffff;fill-rule:nonzero}
   ]]>
  </style>
 </defs>
 <g id="Layer_x0020_1">
  <metadata id="CorelCorpID_0Corel-Layer"/>
  <path class="fil0" d="M2851 1090c0,-39 -4,-70 -10,-91 -7,-22 -17,-38 -32,-47 -15,-9 -36,-14 -63,-14 -25,0 -45,5 -59,14 -14,9 -24,25 -31,47 -6,21 -9,52 -9,91l0 198c0,40 3,70 9,92 7,21 17,37 31,46 14,10 34,14 59,14 27,0 48,-4 63,-14 15,-9 25,-25 32,-46 6,-22 10,-52 10,-92l0 -198zm434 -214c38,46 58,114 58,203l0 181c0,113 -19,213 -55,300l-151 0c33,-94 50,-194 50,-300l0 -180c0,-52 -7,-89 -21,-110 -13,-21 -36,-32 -68,-32 -33,0 -57,11 -71,33 -13,21 -20,58 -20,109l0 209c0,94 -22,165 -66,212 -44,47 -109,71 -195,71 -84,0 -148,-24 -192,-72 -43,-47 -65,-118 -65,-211l0 -200c0,-92 21,-162 63,-210 42,-48 103,-72 184,-72 49,0 90,9 122,28 32,18 55,46 68,81 19,-37 43,-65 74,-83 31,-17 69,-26 116,-26 74,0 130,23 169,69z"/>
  <path class="fil0" d="M3937 878c44,48 66,118 66,211l0 171c0,113 -18,213 -55,300l-153 0c33,-94 50,-194 50,-300l0 -170c0,-39 -3,-70 -10,-91 -6,-22 -16,-38 -30,-47 -14,-9 -34,-14 -59,-14 -26,0 -46,5 -60,14 -14,9 -24,25 -30,47 -7,21 -10,52 -10,91l0 169c0,105 17,205 50,301l-153 0c-36,-89 -55,-189 -55,-299l0 -172c0,-93 22,-163 65,-211 44,-47 108,-71 193,-71 84,0 148,24 191,71z"/>
  <path class="fil0" d="M4464 1416c16,-18 25,-48 25,-88 0,-41 -9,-71 -25,-89 -16,-19 -42,-28 -78,-28 -34,0 -59,9 -75,28 -16,18 -24,48 -24,89 0,40 8,70 24,88 17,19 42,28 76,28 35,0 61,-9 77,-28zm183 -87c0,162 -87,243 -260,243 -172,0 -258,-81 -258,-243 0,-142 65,-223 196,-241l0 -41c0,-16 -4,-30 -13,-40 -8,-11 -23,-25 -45,-43 -13,-12 -23,-21 -30,-29 -7,-8 -12,-18 -17,-31 -4,-12 -6,-29 -6,-51l0 -35 160 0 0 17c0,14 3,26 11,35 7,10 19,22 37,36 22,17 37,33 47,50 10,17 14,39 14,67l0 71c109,27 164,105 164,235z"/>
  <path class="fil0" d="M5227 878c44,48 65,118 65,211l0 171c0,113 -18,213 -54,300l-153 0c33,-94 49,-194 49,-300l0 -170c0,-39 -3,-70 -9,-91 -6,-22 -16,-38 -30,-47 -15,-9 -34,-14 -60,-14 -25,0 -45,5 -59,14 -14,9 -25,25 -31,47 -6,21 -9,52 -9,91l0 169c0,105 16,205 50,301l-153 0c-37,-89 -55,-189 -55,-299l0 -172c0,-93 22,-163 65,-211 43,-47 107,-71 192,-71 84,0 148,24 192,71z"/>
  <path class="fil0" d="M5438 818l158 0 0 509c0,41 9,71 26,89 17,19 45,28 84,28 38,0 66,-9 84,-27 17,-18 25,-48 25,-89 0,-18 -2,-33 -7,-48 -6,-14 -13,-32 -24,-53 -12,-24 -21,-46 -27,-64 -6,-18 -9,-40 -9,-64l0 -15 158 0c1,20 4,38 9,54 5,15 13,35 24,59 12,28 21,51 26,68 6,18 8,39 8,64 0,162 -89,243 -267,243 -179,0 -268,-82 -268,-244l0 -510z"/>
  <path class="fil0" d="M6547 878c44,48 66,118 66,211l0 171c0,113 -18,213 -55,300l-153 0c34,-94 50,-194 50,-300l0 -170c0,-39 -3,-70 -9,-91 -6,-22 -17,-38 -31,-47 -14,-9 -34,-14 -59,-14 -26,0 -45,5 -60,14 -14,9 -24,25 -30,47 -6,21 -9,52 -9,91l0 169c0,105 16,205 49,301l-153 0c-36,-89 -54,-189 -54,-299l0 -172c0,-93 21,-163 65,-211 43,-47 107,-71 192,-71 84,0 148,24 191,71z"/>
  <path class="fil0" d="M7323 1467c24,-27 36,-71 36,-134 0,-64 -12,-110 -36,-137 -24,-26 -63,-40 -116,-40 -52,0 -90,14 -114,40 -24,27 -36,73 -36,137 0,63 13,107 37,134 24,27 62,40 114,40 53,0 91,-13 115,-40zm71 -295c31,42 47,96 47,162 0,77 -20,137 -61,180 -40,42 -97,64 -172,64 -43,0 -82,-10 -118,-30 -35,-19 -63,-48 -84,-84 -20,-37 -30,-81 -30,-130 0,-48 9,-90 27,-126 18,-36 43,-64 75,-85 32,-21 68,-33 108,-36l0 -64c0,-21 -5,-38 -14,-50 -9,-13 -23,-25 -41,-35 -19,-11 -33,-24 -42,-40 -9,-16 -14,-33 -14,-52l0 -34 82 0 0 22c0,14 3,26 10,35 7,10 19,19 36,30 21,13 38,28 48,46 11,17 16,41 16,69l0 78c54,11 96,38 127,80z"/>
  <path class="fil0" d="M7828 812l0 30c0,30 3,55 8,74 4,20 12,38 23,56 11,17 29,41 53,71 28,36 49,65 64,87 14,22 25,50 34,83 9,33 14,74 14,124 0,50 -10,93 -30,130 -19,36 -47,63 -81,82 -35,19 -75,29 -120,29 -69,0 -125,-21 -167,-63 -41,-42 -62,-100 -62,-174 0,-69 17,-128 51,-178l66 24c-11,21 -19,43 -26,66 -6,24 -10,53 -10,87 0,61 12,104 35,129 23,26 61,38 113,38 53,0 91,-13 114,-39 23,-26 35,-71 35,-135 0,-41 -3,-74 -10,-100 -6,-27 -16,-49 -27,-68 -12,-19 -31,-45 -56,-77 -27,-34 -47,-62 -60,-84 -14,-23 -24,-46 -30,-71 -7,-25 -10,-54 -10,-89l0 -32 79 0z"/>
  <path class="fil0" d="M8515 1467c25,-27 37,-71 37,-134 0,-62 -13,-107 -40,-134 -26,-26 -64,-40 -115,-40 -29,0 -55,5 -80,14 -26,9 -48,23 -67,40l0 120c0,63 12,107 36,134 24,27 62,40 115,40 52,0 90,-13 114,-40zm8 -352c34,19 60,46 80,83 20,38 30,83 30,136 0,80 -21,140 -62,182 -42,41 -99,62 -170,62 -70,0 -126,-21 -168,-61 -42,-41 -63,-99 -63,-175l0 -338c0,-58 19,-105 57,-140 37,-35 87,-52 149,-52l210 0 0 73 -200 0c-49,0 -84,10 -105,29 -21,20 -31,52 -31,96l0 142c19,-21 43,-37 71,-48 28,-11 59,-17 91,-17 41,1 78,10 111,28z"/>
  <path class="fil0" d="M8787 1258l73 17c-13,32 -19,64 -19,96 0,91 49,136 148,136 55,0 93,-12 115,-37 23,-25 34,-69 34,-130 0,-61 -12,-105 -36,-134 -23,-29 -62,-44 -115,-44l-44 0 0 -70 57 0c45,0 76,-12 94,-35 17,-24 26,-55 26,-94 0,-25 -4,-49 -12,-72 -9,-23 -21,-49 -39,-79l78 0c35,50 53,103 53,157 0,40 -12,75 -34,105 -22,30 -58,48 -107,55 57,6 97,29 123,69 25,41 37,90 37,146 0,76 -20,134 -61,174 -40,40 -97,60 -169,60 -44,0 -84,-9 -119,-26 -34,-16 -62,-40 -81,-71 -20,-31 -30,-68 -30,-109 0,-44 10,-82 28,-114z"/>
  <path class="fil0" d="M9760 868c39,44 59,110 59,199l0 135c0,77 -7,147 -19,209 -12,62 -29,114 -53,155l-79 0c48,-82 72,-204 72,-365l0 -129c0,-51 -5,-91 -14,-119 -9,-29 -24,-49 -45,-61 -21,-12 -51,-18 -88,-18 -37,0 -66,6 -87,18 -21,12 -36,32 -46,61 -9,28 -14,68 -14,119l0 129c0,75 8,145 22,210 14,64 31,116 51,155l-82 0c-19,-38 -36,-90 -50,-156 -14,-67 -21,-136 -21,-208l0 -136c0,-89 20,-155 59,-199 39,-43 95,-65 168,-65 73,0 128,22 167,66z"/>
  <path class="fil1" d="M946 1055c9,90 14,136 -59,213 -76,80 -266,227 -460,339 -82,48 -193,105 -277,135 -62,23 -114,32 -140,-13 -17,-29 -9,-56 0,-79 68,-183 262,-526 389,-748 13,-23 27,-46 40,-70 196,-337 455,-750 506,-816 7,-10 21,-21 33,-14 10,6 10,18 9,27 0,1 -3,13 -5,18 -83,341 -74,675 -36,1008z"/>
  <path class="fil1" d="M1232 1160c-82,-38 -125,-57 -155,-159 -31,-105 -64,-343 -64,-568 0,-94 6,-218 21,-306 12,-66 30,-116 82,-116 34,0 53,21 69,40 125,150 323,490 453,712 13,22 26,45 40,69 194,338 422,769 454,846 5,11 8,28 -5,36 -10,5 -20,-1 -27,-6 -1,-1 -10,-10 -13,-13 -254,-243 -547,-402 -855,-535z"/>
  <path class="fil1" d="M998 1354c74,-52 112,-79 215,-55 106,26 329,117 524,229 81,47 186,115 255,172 50,43 85,83 59,128 -17,29 -44,36 -69,40 -193,33 -587,35 -843,37 -26,0 -53,0 -80,0 -390,-1 -877,-19 -960,-30 -12,-1 -28,-7 -28,-22 0,-11 10,-18 18,-21 2,0 14,-4 18,-5 337,-98 622,-272 891,-473z"/>
 </g>
</svg>
